<svg id="visual" viewBox="0 0 900 600" width="900" height="600" xmlns="http://www.w3.org/2000/svg" xmlns:xlink="http://www.w3.org/1999/xlink" version="1.1"><rect x="0" y="0" width="900" height="600" fill="#001220"></rect><path d="M0 471L21.5 468C43 465 86 459 128.8 460.2C171.7 461.3 214.3 469.7 257.2 467.3C300 465 343 452 385.8 445.3C428.7 438.7 471.3 438.3 514.2 442.2C557 446 600 454 642.8 452.5C685.7 451 728.3 440 771.2 434.7C814 429.3 857 429.7 878.5 429.8L900 430L900 601L878.5 601C857 601 814 601 771.2 601C728.3 601 685.7 601 642.8 601C600 601 557 601 514.2 601C471.3 601 428.7 601 385.8 601C343 601 300 601 257.2 601C214.3 601 171.7 601 128.8 601C86 601 43 601 21.5 601L0 601Z" fill="#fa7268"></path><path d="M0 500L21.5 493.8C43 487.7 86 475.3 128.8 471C171.7 466.7 214.3 470.3 257.2 471.3C300 472.3 343 470.7 385.8 470C428.7 469.3 471.3 469.7 514.2 473.3C557 477 600 484 642.8 484.2C685.7 484.3 728.3 477.7 771.2 473.7C814 469.7 857 468.3 878.5 467.7L900 467L900 601L878.5 601C857 601 814 601 771.2 601C728.3 601 685.7 601 642.8 601C600 601 557 601 514.2 601C471.3 601 428.7 601 385.8 601C343 601 300 601 257.2 601C214.3 601 171.7 601 128.8 601C86 601 43 601 21.5 601L0 601Z" fill="#ef5f67"></path><path d="M0 490L21.5 493C43 496 86 502 128.8 508.2C171.7 514.3 214.3 520.7 257.2 516.7C300 512.7 343 498.3 385.8 489C428.7 479.7 471.3 475.3 514.2 480.2C557 485 600 499 642.8 505.7C685.7 512.3 728.3 511.7 771.2 512C814 512.3 857 513.7 878.5 514.3L900 515L900 601L878.5 601C857 601 814 601 771.2 601C728.3 601 685.7 601 642.8 601C600 601 557 601 514.2 601C471.3 601 428.7 601 385.8 601C343 601 300 601 257.2 601C214.3 601 171.7 601 128.8 601C86 601 43 601 21.5 601L0 601Z" fill="#e34c67"></path><path d="M0 506L21.5 509.7C43 513.3 86 520.7 128.8 526.7C171.7 532.7 214.3 537.3 257.2 536.8C300 536.3 343 530.7 385.8 528.8C428.7 527 471.3 529 514.2 533.3C557 537.7 600 544.3 642.8 546C685.7 547.7 728.3 544.3 771.2 541.8C814 539.3 857 537.7 878.5 536.8L900 536L900 601L878.5 601C857 601 814 601 771.2 601C728.3 601 685.7 601 642.8 601C600 601 557 601 514.2 601C471.3 601 428.7 601 385.8 601C343 601 300 601 257.2 601C214.3 601 171.7 601 128.8 601C86 601 43 601 21.5 601L0 601Z" fill="#d53867"></path><path d="M0 553L21.5 557.3C43 561.7 86 570.3 128.8 569C171.7 567.7 214.3 556.3 257.2 553C300 549.7 343 554.3 385.8 558C428.7 561.7 471.3 564.3 514.2 564.2C557 564 600 561 642.8 562C685.7 563 728.3 568 771.2 566.7C814 565.3 857 557.7 878.5 553.8L900 550L900 601L878.5 601C857 601 814 601 771.2 601C728.3 601 685.7 601 642.8 601C600 601 557 601 514.2 601C471.3 601 428.7 601 385.8 601C343 601 300 601 257.2 601C214.3 601 171.7 601 128.8 601C86 601 43 601 21.5 601L0 601Z" fill="#c62368"></path></svg>